<svg width="13" height="13" viewBox="0 0 13 13" fill="none" xmlns="http://www.w3.org/2000/svg">
<path d="M6.50001 1.0835C9.49164 1.0835 11.9167 3.50854 11.9167 6.50016C11.9167 9.49179 9.49164 11.9168 6.50001 11.9168C3.50839 11.9168 1.08334 9.49179 1.08334 6.50016C1.08334 3.50854 3.50839 1.0835 6.50001 1.0835ZM6.50001 2.16683C5.35074 2.16683 4.24854 2.62338 3.43588 3.43603C2.62322 4.24869 2.16668 5.35089 2.16668 6.50016C2.16668 7.64943 2.62322 8.75164 3.43588 9.56429C4.24854 10.377 5.35074 10.8335 6.50001 10.8335C7.64928 10.8335 8.75148 10.377 9.56414 9.56429C10.3768 8.75164 10.8333 7.64943 10.8333 6.50016C10.8333 5.35089 10.3768 4.24869 9.56414 3.43603C8.75148 2.62338 7.64928 2.16683 6.50001 2.16683ZM6.50001 8.12516C6.64367 8.12516 6.78144 8.18223 6.88303 8.28381C6.98461 8.3854 7.04168 8.52317 7.04168 8.66683C7.04168 8.81049 6.98461 8.94826 6.88303 9.04985C6.78144 9.15143 6.64367 9.2085 6.50001 9.2085C6.35635 9.2085 6.21858 9.15143 6.11699 9.04985C6.01541 8.94826 5.95834 8.81049 5.95834 8.66683C5.95834 8.52317 6.01541 8.3854 6.11699 8.28381C6.21858 8.18223 6.35635 8.12516 6.50001 8.12516ZM6.50001 3.25016C6.64367 3.25016 6.78144 3.30723 6.88303 3.40881C6.98461 3.5104 7.04168 3.64817 7.04168 3.79183V7.04183C7.04168 7.18549 6.98461 7.32326 6.88303 7.42485C6.78144 7.52643 6.64367 7.5835 6.50001 7.5835C6.35635 7.5835 6.21858 7.52643 6.11699 7.42485C6.01541 7.32326 5.95834 7.18549 5.95834 7.04183V3.79183C5.95834 3.64817 6.01541 3.5104 6.11699 3.40881C6.21858 3.30723 6.35635 3.25016 6.50001 3.25016Z" fill="#ECCDFC"/>
</svg>
