<svg width="17" height="17" viewBox="0 0 17 17" fill="none" xmlns="http://www.w3.org/2000/svg">
<path d="M16.542 4.22822L12.7714 0.458488C12.6461 0.333101 12.4972 0.233637 12.3334 0.165776C12.1696 0.0979159 11.9941 0.0629883 11.8168 0.0629883C11.6395 0.0629883 11.4639 0.0979159 11.3001 0.165776C11.1363 0.233637 10.9875 0.333101 10.8621 0.458488L0.45821 10.8624C0.33231 10.9873 0.232494 11.136 0.164562 11.2998C0.0966308 11.4636 0.0619402 11.6393 0.0625068 11.8166V15.5872C0.0625068 15.9452 0.204733 16.2886 0.457897 16.5417C0.711062 16.7949 1.05443 16.9371 1.41246 16.9371H15.5869C15.7659 16.9371 15.9376 16.866 16.0642 16.7394C16.1908 16.6129 16.2619 16.4412 16.2619 16.2622C16.2619 16.0831 16.1908 15.9115 16.0642 15.7849C15.9376 15.6583 15.7659 15.5872 15.5869 15.5872H7.09236L16.542 6.13755C16.6674 6.01219 16.7669 5.86336 16.8347 5.69956C16.9026 5.53576 16.9375 5.36019 16.9375 5.18288C16.9375 5.00558 16.9026 4.83001 16.8347 4.66621C16.7669 4.50241 16.6674 4.35358 16.542 4.22822ZM8.83717 4.3919L10.2453 5.80006L3.09989 12.9455L1.69173 11.5373L8.83717 4.3919ZM1.41246 15.5872V13.1666L3.83308 15.5872H1.41246ZM5.4623 15.3079L4.05498 13.8998L11.1996 6.75431L12.6077 8.16247L5.4623 15.3079ZM13.562 7.20823L9.79226 3.43765L11.8172 1.41273L15.5869 5.18331L13.562 7.20823Z" fill="#7058CB"/>
</svg>
