<svg width="20" height="22" viewBox="0 0 20 22" fill="none" xmlns="http://www.w3.org/2000/svg">
<path d="M5.918 16.8069L13.808 9.25404C14.0322 9.04336 14.211 8.78899 14.3331 8.50659C14.4553 8.2242 14.5183 7.91977 14.5183 7.61209C14.5183 7.3044 14.4553 6.99997 14.3331 6.71758C14.211 6.43518 14.0322 6.1808 13.808 5.97013C13.3437 5.53342 12.7304 5.29027 12.093 5.29027C11.4556 5.29027 10.8423 5.53342 10.378 5.97013L2.544 13.4679C2.11777 13.8682 1.77807 14.3515 1.54586 14.8881C1.31365 15.4247 1.19385 16.0032 1.19385 16.5879C1.19385 17.1725 1.31365 17.751 1.54586 18.2876C1.77807 18.8242 2.11777 19.3075 2.544 19.7078C4.344 21.4307 7.262 21.4307 9.062 19.7078L17.011 12.1C19.663 9.56004 19.663 5.44414 17.011 2.9042C14.358 0.365266 10.057 0.365266 7.404 2.9042L1 9.03405" stroke="black" stroke-width="1.625" stroke-linecap="round"/>
</svg>
