<svg width="8" height="14" viewBox="0 0 8 14" fill="none" xmlns="http://www.w3.org/2000/svg">
<path d="M8 7C7.99216 6.74352 7.8903 6.52368 7.67875 6.32582L1.58276 0.749154C1.40255 0.587937 1.19099 0.5 0.932419 0.5C0.407444 0.5 0 0.88106 0 1.37204C0 1.60654 0.101861 1.82638 0.282076 1.99493L5.7669 7L0.282076 12.0051C0.101861 12.1736 0 12.3861 0 12.628C0 13.1189 0.407444 13.5 0.932419 13.5C1.18315 13.5 1.40255 13.4121 1.58276 13.2508L7.67875 7.66685C7.89814 7.47632 8 7.25648 8 7Z" fill="#7058CB"/>
</svg>
