<svg width="19" height="18" viewBox="0 0 19 18" fill="none" xmlns="http://www.w3.org/2000/svg">
<path d="M9.92871 9C11.1222 9 12.2668 8.52589 13.1107 7.68198C13.9546 6.83807 14.4287 5.69347 14.4287 4.5C14.4287 3.30653 13.9546 2.16193 13.1107 1.31802C12.2668 0.474106 11.1222 0 9.92871 0C8.73524 0 7.59064 0.474106 6.74673 1.31802C5.90282 2.16193 5.42871 3.30653 5.42871 4.5C5.42871 5.69347 5.90282 6.83807 6.74673 7.68198C7.59064 8.52589 8.73524 9 9.92871 9ZM12.9287 4.5C12.9287 5.29565 12.6126 6.05871 12.05 6.62132C11.4874 7.18393 10.7244 7.5 9.92871 7.5C9.13306 7.5 8.37 7.18393 7.80739 6.62132C7.24478 6.05871 6.92871 5.29565 6.92871 4.5C6.92871 3.70435 7.24478 2.94129 7.80739 2.37868C8.37 1.81607 9.13306 1.5 9.92871 1.5C10.7244 1.5 11.4874 1.81607 12.05 2.37868C12.6126 2.94129 12.9287 3.70435 12.9287 4.5ZM18.9287 16.5C18.9287 18 17.4287 18 17.4287 18H2.42871C2.42871 18 0.928711 18 0.928711 16.5C0.928711 15 2.42871 10.5 9.92871 10.5C17.4287 10.5 18.9287 15 18.9287 16.5ZM17.4287 16.494C17.4272 16.125 17.1977 15.015 16.1807 13.998C15.2027 13.02 13.3622 12 9.92871 12C6.49521 12 4.65471 13.02 3.67671 13.998C2.65971 15.015 2.43171 16.125 2.42871 16.494H17.4287Z" fill="white"/>
</svg>
