<svg width="27" height="27" viewBox="0 0 27 27" fill="none" xmlns="http://www.w3.org/2000/svg">
<path d="M13 14C14.1935 14 15.3381 13.5259 16.182 12.682C17.0259 11.8381 17.5 10.6935 17.5 9.5C17.5 8.30653 17.0259 7.16193 16.182 6.31802C15.3381 5.47411 14.1935 5 13 5C11.8065 5 10.6619 5.47411 9.81802 6.31802C8.97411 7.16193 8.5 8.30653 8.5 9.5C8.5 10.6935 8.97411 11.8381 9.81802 12.682C10.6619 13.5259 11.8065 14 13 14ZM16 9.5C16 10.2956 15.6839 11.0587 15.1213 11.6213C14.5587 12.1839 13.7956 12.5 13 12.5C12.2044 12.5 11.4413 12.1839 10.8787 11.6213C10.3161 11.0587 10 10.2956 10 9.5C10 8.70435 10.3161 7.94129 10.8787 7.37868C11.4413 6.81607 12.2044 6.5 13 6.5C13.7956 6.5 14.5587 6.81607 15.1213 7.37868C15.6839 7.94129 16 8.70435 16 9.5ZM22 21.5C22 23 20.5 23 20.5 23H5.5C5.5 23 4 23 4 21.5C4 20 5.5 15.5 13 15.5C20.5 15.5 22 20 22 21.5ZM20.5 21.494C20.4985 21.125 20.269 20.015 19.252 18.998C18.274 18.02 16.4335 17 13 17C9.5665 17 7.726 18.02 6.748 18.998C5.731 20.015 5.503 21.125 5.5 21.494H20.5Z" fill="white"/>
<circle cx="13.5" cy="9.5" r="3.5" fill="white"/>
<circle cx="7" cy="20.9999" r="2" fill="white"/>
<circle cx="8" cy="19.0001" r="2" fill="white"/>
<circle cx="10" cy="20" r="2" fill="white"/>
<circle cx="11" cy="17.9999" r="2" fill="white"/>
<circle cx="12" cy="20" r="2" fill="white"/>
<circle cx="13" cy="17.9999" r="2" fill="white"/>
<circle cx="14" cy="20" r="2" fill="white"/>
<circle cx="15" cy="17.9999" r="2" fill="white"/>
<circle cx="16" cy="20" r="2" fill="white"/>
<circle cx="17" cy="19.0001" r="2" fill="white"/>
<circle cx="18" cy="20" r="2" fill="white"/>
<circle cx="19" cy="20" r="2" fill="white"/>
<circle cx="19" cy="20.9999" r="2" fill="white"/>
</svg>
