<svg width="22" height="22" viewBox="0 0 22 22" fill="none" xmlns="http://www.w3.org/2000/svg">
<path d="M5.48933 16.7187C5.78 16.7187 6.02356 16.62 6.22 16.4227C6.41556 16.2262 6.51333 15.9822 6.51333 15.6907C6.51333 15.3991 6.41467 15.1556 6.21733 14.96C6.02 14.7644 5.776 14.6667 5.48533 14.6667C5.19467 14.6667 4.95111 14.7653 4.75467 14.9627C4.55822 15.16 4.46044 15.404 4.46133 15.6947C4.46222 15.9853 4.56089 16.2284 4.75733 16.424C4.95378 16.6196 5.19778 16.7187 5.48933 16.7187ZM5.48933 11.692C5.78 11.692 6.02356 11.5938 6.22 11.3973C6.41556 11.2 6.51333 10.9556 6.51333 10.664C6.51333 10.3724 6.41467 10.1293 6.21733 9.93467C6.02 9.74 5.776 9.64222 5.48533 9.64133C5.19467 9.64044 4.95111 9.73867 4.75467 9.936C4.55822 10.1333 4.46044 10.3778 4.46133 10.6693C4.46222 10.9609 4.56089 11.204 4.75733 11.3987C4.95378 11.5933 5.19778 11.6911 5.48933 11.692ZM5.48933 6.66667C5.78 6.66667 6.02356 6.56844 6.22 6.372C6.41556 6.17467 6.51333 5.93022 6.51333 5.63867C6.51333 5.34711 6.41467 5.104 6.21733 4.90933C6.02 4.71467 5.776 4.61689 5.48533 4.616C5.19467 4.61511 4.95111 4.71333 4.75467 4.91067C4.55911 5.108 4.46133 5.352 4.46133 5.64267C4.46133 5.93333 4.56 6.17689 4.75733 6.37333C4.95467 6.56978 5.19867 6.66756 5.48933 6.66667ZM9.58933 16.36H16.7693V15.0267H9.58933V16.36ZM9.58933 11.3333H16.7693V10H9.58933V11.3333ZM9.58933 6.30667H16.7693V4.97333H9.58933V6.30667ZM2.15467 21.3333C1.54044 21.3333 1.028 21.128 0.617333 20.7173C0.206666 20.3067 0.000888889 19.7938 0 19.1787V2.15467C0 1.54044 0.205778 1.028 0.617333 0.617333C1.02889 0.206666 1.54133 0.000888889 2.15467 0H19.18C19.7933 0 20.3058 0.205778 20.7173 0.617333C21.1289 1.02889 21.3342 1.54133 21.3333 2.15467V19.18C21.3333 19.7933 21.128 20.3058 20.7173 20.7173C20.3067 21.1289 19.7938 21.3342 19.1787 21.3333H2.15467ZM2.15467 20H19.18C19.3844 20 19.5724 19.9147 19.744 19.744C19.9156 19.5733 20.0009 19.3849 20 19.1787V2.15467C20 1.94933 19.9147 1.76089 19.744 1.58933C19.5733 1.41778 19.3849 1.33244 19.1787 1.33333H2.15467C1.94933 1.33333 1.76089 1.41867 1.58933 1.58933C1.41778 1.76 1.33244 1.94844 1.33333 2.15467V19.18C1.33333 19.3844 1.41867 19.5724 1.58933 19.744C1.76 19.9156 1.948 20.0009 2.15333 20" fill="black"/>
</svg>
