<svg width="23" height="23" viewBox="0 0 23 23" fill="none" xmlns="http://www.w3.org/2000/svg">
<g clip-path="url(#clip0_378_1202)">
<path d="M11.5001 1.27783C9.47829 1.27783 7.50193 1.87735 5.8209 3.00059C4.13986 4.12382 2.82965 5.72031 2.05596 7.58818C1.28226 9.45605 1.07983 11.5114 1.47425 13.4943C1.86868 15.4772 2.84225 17.2987 4.27186 18.7283C5.70146 20.1579 7.52289 21.1314 9.5058 21.5259C11.4887 21.9203 13.5441 21.7179 15.4119 20.9442C17.2798 20.1705 18.8763 18.8603 19.9995 17.1792C21.1228 15.4982 21.7223 13.5218 21.7223 11.5001C21.7223 8.78895 20.6453 6.18889 18.7283 4.27185C16.8112 2.35481 14.2112 1.27783 11.5001 1.27783ZM16.6112 11.2253C16.4404 11.3923 16.2111 11.4859 15.9723 11.4859C15.7335 11.4859 15.5041 11.3923 15.3334 11.2253L12.3945 8.30561V17.3395C12.3945 17.5767 12.3003 17.8042 12.1325 17.972C11.9648 18.1397 11.7373 18.2339 11.5001 18.2339C11.2628 18.2339 11.0353 18.1397 10.8676 17.972C10.6999 17.8042 10.6056 17.5767 10.6056 17.3395V8.39505L7.77534 11.2253C7.60589 11.3948 7.37608 11.49 7.13645 11.49C6.89682 11.49 6.667 11.3948 6.49756 11.2253C6.32812 11.0559 6.23292 10.8261 6.23292 10.5864C6.23292 10.3468 6.32812 10.117 6.49756 9.94755L11.5512 4.9195L16.6112 9.96033C16.6942 10.0434 16.7601 10.142 16.8051 10.2505C16.85 10.359 16.8732 10.4754 16.8732 10.5928C16.8732 10.7103 16.85 10.8266 16.8051 10.9351C16.7601 11.0437 16.6942 11.1423 16.6112 11.2253Z" fill="#8A6CFB"/>
</g>
<defs>
<clipPath id="clip0_378_1202">
<rect width="23" height="23" fill="white"/>
</clipPath>
</defs>
</svg>
