<svg width="21" height="21" viewBox="0 0 21 21" fill="none" xmlns="http://www.w3.org/2000/svg">
<path d="M10.5001 0.277771C8.47829 0.277771 6.50193 0.877294 4.8209 2.00053C3.13986 3.12376 1.82965 4.72025 1.05596 6.58812C0.282261 8.45599 0.0798271 10.5113 0.474254 12.4942C0.86868 14.4772 1.84225 16.2986 3.27186 17.7282C4.70146 19.1578 6.52289 20.1314 8.5058 20.5258C10.4887 20.9202 12.5441 20.7178 14.4119 19.9441C16.2798 19.1704 17.8763 17.8602 18.9995 16.1792C20.1228 14.4981 20.7223 12.5218 20.7223 10.5C20.7223 7.78889 19.6453 5.18883 17.7283 3.27179C15.8112 1.35475 13.2112 0.277771 10.5001 0.277771ZM15.6112 10.2253C15.4404 10.3923 15.2111 10.4858 14.9723 10.4858C14.7335 10.4858 14.5041 10.3923 14.3334 10.2253L11.3945 7.30555V16.3394C11.3945 16.5767 11.3003 16.8042 11.1325 16.9719C10.9648 17.1396 10.7373 17.2339 10.5001 17.2339C10.2628 17.2339 10.0353 17.1396 9.86759 16.9719C9.69985 16.8042 9.60561 16.5767 9.60561 16.3394V7.39499L6.77534 10.2253C6.60589 10.3947 6.37608 10.4899 6.13645 10.4899C5.89682 10.4899 5.667 10.3947 5.49756 10.2253C5.32812 10.0558 5.23292 9.82601 5.23292 9.58638C5.23292 9.34675 5.32812 9.11694 5.49756 8.94749L10.5512 3.91944L15.6112 8.96027C15.6942 9.04333 15.7601 9.14194 15.8051 9.25046C15.85 9.35899 15.8732 9.4753 15.8732 9.59277C15.8732 9.71024 15.85 9.82656 15.8051 9.93508C15.7601 10.0436 15.6942 10.1422 15.6112 10.2253Z" fill="#8A6CFB"/>
</svg>
