<svg width="12" height="12" viewBox="0 0 12 12" fill="none" xmlns="http://www.w3.org/2000/svg">
<path d="M5.99999 0.166687C9.22174 0.166687 11.8333 2.77827 11.8333 6.00002C11.8333 9.22177 9.22174 11.8334 5.99999 11.8334C2.77824 11.8334 0.166656 9.22177 0.166656 6.00002C0.166656 2.77827 2.77824 0.166687 5.99999 0.166687ZM5.99999 1.33335C4.76231 1.33335 3.57533 1.82502 2.70016 2.70019C1.82499 3.57536 1.33332 4.76234 1.33332 6.00002C1.33332 7.2377 1.82499 8.42468 2.70016 9.29985C3.57533 10.175 4.76231 10.6667 5.99999 10.6667C7.23767 10.6667 8.42465 10.175 9.29982 9.29985C10.175 8.42468 10.6667 7.2377 10.6667 6.00002C10.6667 4.76234 10.175 3.57536 9.29982 2.70019C8.42465 1.82502 7.23767 1.33335 5.99999 1.33335ZM5.99999 7.75002C6.1547 7.75002 6.30307 7.81148 6.41247 7.92088C6.52187 8.03027 6.58332 8.17864 6.58332 8.33335C6.58332 8.48806 6.52187 8.63644 6.41247 8.74583C6.30307 8.85523 6.1547 8.91669 5.99999 8.91669C5.84528 8.91669 5.69691 8.85523 5.58751 8.74583C5.47812 8.63644 5.41666 8.48806 5.41666 8.33335C5.41666 8.17864 5.47812 8.03027 5.58751 7.92088C5.69691 7.81148 5.84528 7.75002 5.99999 7.75002ZM5.99999 2.50002C6.1547 2.50002 6.30307 2.56148 6.41247 2.67088C6.52187 2.78027 6.58332 2.92864 6.58332 3.08335V6.58335C6.58332 6.73806 6.52187 6.88644 6.41247 6.99583C6.30307 7.10523 6.1547 7.16669 5.99999 7.16669C5.84528 7.16669 5.69691 7.10523 5.58751 6.99583C5.47812 6.88644 5.41666 6.73806 5.41666 6.58335V3.08335C5.41666 2.92864 5.47812 2.78027 5.58751 2.67088C5.69691 2.56148 5.84528 2.50002 5.99999 2.50002Z" fill="#3A305E"/>
</svg>
