<svg width="121" height="49" viewBox="0 0 121 49" fill="none" xmlns="http://www.w3.org/2000/svg">
<g filter="url(#filter0_d_0_605)">
<rect x="4" y="2" width="113" height="41" rx="17" fill="white" shape-rendering="crispEdges"/>
<rect x="4.5" y="2.5" width="112" height="40" rx="16.5" stroke="#7058CB" shape-rendering="crispEdges"/>
<path d="M30.542 18.2282L26.7714 14.4584C26.6461 14.333 26.4972 14.2336 26.3334 14.1657C26.1696 14.0979 25.9941 14.0629 25.8168 14.0629C25.6395 14.0629 25.4639 14.0979 25.3001 14.1657C25.1363 14.2336 24.9875 14.333 24.8621 14.4584L14.4582 24.8623C14.3323 24.9872 14.2325 25.1359 14.1646 25.2997C14.0966 25.4635 14.0619 25.6392 14.0625 25.8166V29.5871C14.0625 29.9452 14.2047 30.2885 14.4579 30.5417C14.7111 30.7948 15.0544 30.9371 15.4125 30.9371H29.5869C29.7659 30.9371 29.9376 30.866 30.0642 30.7394C30.1908 30.6128 30.2619 30.4411 30.2619 30.2621C30.2619 30.0831 30.1908 29.9114 30.0642 29.7848C29.9376 29.6582 29.7659 29.5871 29.5869 29.5871H21.0924L30.542 20.1375C30.6674 20.0121 30.7669 19.8633 30.8347 19.6995C30.9026 19.5357 30.9375 19.3601 30.9375 19.1828C30.9375 19.0055 30.9026 18.83 30.8347 18.6661C30.7669 18.5023 30.6674 18.3535 30.542 18.2282ZM22.8372 18.3918L24.2453 19.8L17.0999 26.9454L15.6917 25.5373L22.8372 18.3918ZM15.4125 29.5871V27.1665L17.8331 29.5871H15.4125ZM19.4623 29.3079L18.055 27.8997L25.1996 20.7542L26.6077 22.1624L19.4623 29.3079ZM27.562 21.2082L23.7923 17.4376L25.8172 15.4127L29.5869 19.1832L27.562 21.2082Z" fill="#7058CB"/>
<path d="M42.7358 17.18H45.8238C45.8238 17.18 45.8184 17.2333 45.8078 17.34C45.7971 17.436 45.7811 17.548 45.7598 17.676C45.7491 17.804 45.7278 17.9373 45.6958 18.076C45.6744 18.204 45.6478 18.3053 45.6158 18.38C45.4344 18.7427 45.1998 19.0787 44.9118 19.388C44.6238 19.6973 44.3038 19.98 43.9518 20.236C44.5491 20.588 45.1571 20.8867 45.7758 21.132C46.3944 21.3773 47.0238 21.5907 47.6638 21.772L47.0238 22.54C46.9811 22.5933 46.9384 22.6413 46.8958 22.684C46.8638 22.7267 46.8211 22.764 46.7678 22.796C46.7251 22.828 46.6718 22.8547 46.6078 22.876C46.5438 22.8867 46.4744 22.892 46.3998 22.892C46.3038 22.892 46.2184 22.892 46.1438 22.892C46.0691 22.8813 45.9998 22.8653 45.9358 22.844C45.8718 22.8333 45.8078 22.8227 45.7438 22.812C45.6798 22.7907 45.6211 22.7693 45.5678 22.748C45.3864 22.7053 45.1731 22.652 44.9278 22.588C44.6931 22.5133 44.4318 22.4227 44.1438 22.316C43.8558 22.2093 43.5411 22.076 43.1998 21.916C42.8584 21.756 42.5011 21.5587 42.1278 21.324C41.8184 21.4733 41.5144 21.612 41.2158 21.74C40.9278 21.868 40.6504 21.9853 40.3838 22.092C40.1064 22.1987 39.8451 22.3 39.5998 22.396C39.3651 22.4813 39.1571 22.5613 38.9758 22.636C38.9011 22.668 38.7998 22.7053 38.6718 22.748C38.5438 22.7907 38.3038 22.8493 37.9518 22.924C37.8984 22.9453 37.8291 22.9613 37.7438 22.972C37.6691 22.9827 37.6051 22.9827 37.5518 22.972C37.4131 22.972 37.2958 22.9293 37.1998 22.844C37.1038 22.748 37.0291 22.652 36.9758 22.556L36.4638 21.82C36.8798 21.66 37.3651 21.4947 37.9198 21.324C38.4851 21.1427 39.0664 20.9347 39.6638 20.7C40.2611 20.4653 40.8424 20.1933 41.4078 19.884C41.9838 19.564 42.4958 19.1907 42.9438 18.764H37.4238V17.18H40.5278C40.7198 16.9453 40.9224 16.668 41.1358 16.348C41.3491 16.028 41.5518 15.6653 41.7438 15.26L43.6318 16.06C43.5571 16.22 43.4344 16.4013 43.2638 16.604C43.1038 16.796 42.9278 16.988 42.7358 17.18ZM43.0558 29.26H41.0558V25.5H35.8238V23.916H48.3038C48.3144 24.0973 48.3091 24.284 48.2878 24.476C48.2771 24.668 48.2344 24.8387 48.1598 24.988C48.0958 25.1373 47.9944 25.26 47.8558 25.356C47.7171 25.452 47.5464 25.5 47.3438 25.5H43.0558V29.26ZM49.6613 19.9C49.6613 19.4413 49.7466 19.0147 49.9173 18.62C50.0986 18.2253 50.3439 17.8787 50.6533 17.58C50.9626 17.2813 51.3253 17.0467 51.7413 16.876C52.1573 16.7053 52.6106 16.62 53.1013 16.62C53.5813 16.62 54.0293 16.7053 54.4453 16.876C54.8613 17.0467 55.2239 17.2813 55.5333 17.58C55.8426 17.8787 56.0879 18.2253 56.2693 18.62C56.4506 19.0147 56.5413 19.4413 56.5413 19.9C56.5413 20.3693 56.4506 20.8013 56.2693 21.196C56.0879 21.5907 55.8426 21.9373 55.5333 22.236C55.2239 22.5347 54.8613 22.7693 54.4453 22.94C54.0293 23.1 53.5813 23.18 53.1013 23.18C52.6106 23.18 52.1573 23.1 51.7413 22.94C51.3253 22.7693 50.9626 22.5347 50.6533 22.236C50.3439 21.9373 50.0986 21.5907 49.9173 21.196C49.7466 20.8013 49.6613 20.3693 49.6613 19.9ZM51.1013 24.22H60.8613V29.18H58.8613V25.804H51.1013V24.22ZM60.8613 17.18V23.34H58.8613V20.572H56.8612V18.988H58.8613V16.14C59.0746 16.108 59.2986 16.0973 59.5333 16.108C59.7679 16.1187 59.9813 16.1613 60.1733 16.236C60.3759 16.3107 60.5413 16.4227 60.6693 16.572C60.7973 16.7213 60.8613 16.924 60.8613 17.18ZM51.6613 19.9C51.6613 20.38 51.7946 20.796 52.0613 21.148C52.3386 21.4893 52.6853 21.66 53.1013 21.66C53.5066 21.66 53.8479 21.4893 54.1253 21.148C54.4026 20.796 54.5413 20.38 54.5413 19.9C54.5413 19.4307 54.4026 19.02 54.1253 18.668C53.8479 18.316 53.5066 18.14 53.1013 18.14C52.6853 18.14 52.3386 18.316 52.0613 18.668C51.7946 19.02 51.6613 19.4307 51.6613 19.9ZM67.9788 29.1V23.98H77.7388V29.1H67.9788ZM73.5788 22.62H67.3388V16.78C67.5734 16.7587 67.8081 16.7587 68.0428 16.78C68.2774 16.7907 68.4908 16.8333 68.6828 16.908C68.8748 16.9827 69.0294 17.0947 69.1468 17.244C69.2748 17.3933 69.3388 17.5853 69.3388 17.82V21.036H74.5388C74.5494 21.228 74.5441 21.42 74.5228 21.612C74.5121 21.7933 74.4694 21.9587 74.3948 22.108C74.3308 22.2573 74.2294 22.38 74.0908 22.476C73.9521 22.572 73.7814 22.62 73.5788 22.62ZM77.7388 20.348V23.18H75.7388V16.14C75.9521 16.108 76.1761 16.0973 76.4108 16.108C76.6454 16.1187 76.8588 16.1613 77.0508 16.236C77.2534 16.3107 77.4188 16.4227 77.5468 16.572C77.6748 16.7213 77.7388 16.924 77.7388 17.18V18.748H79.6588C79.7121 19.0573 79.7228 19.324 79.6908 19.548C79.6588 19.7613 79.5894 19.932 79.4828 20.06C79.3654 20.1987 79.2321 20.284 79.0828 20.316C78.9441 20.3373 78.8534 20.348 78.8108 20.348H77.7388ZM75.7388 27.516V25.564H69.9788V27.516H75.7388ZM91.5763 17.34V29.1H89.5763V16.3C89.7789 16.2787 89.9976 16.2787 90.2323 16.3C90.4669 16.3107 90.6856 16.3533 90.8883 16.428C91.0803 16.5027 91.2403 16.6147 91.3683 16.764C91.5069 16.9133 91.5763 17.1053 91.5763 17.34ZM80.9363 17.34H87.4963C87.4963 17.4787 87.4963 17.6173 87.4963 17.756C87.5069 17.884 87.5123 18.012 87.5123 18.14C87.5123 18.268 87.5123 18.396 87.5123 18.524C87.5123 18.6413 87.5069 18.7587 87.4963 18.876C87.4109 19.8573 87.1709 20.7427 86.7763 21.532C86.3816 22.3213 85.9229 23.0147 85.4003 23.612C84.8669 24.2093 84.3123 24.7107 83.7363 25.116C83.1709 25.5213 82.6749 25.8307 82.2483 26.044C82.0563 26.1293 81.9176 26.1827 81.8323 26.204C81.7469 26.2147 81.6723 26.22 81.6083 26.22C81.4483 26.2093 81.3203 26.156 81.2243 26.06C81.1283 25.964 81.0536 25.8787 81.0003 25.804L80.4563 25.132C81.0749 24.8013 81.6669 24.4493 82.2323 24.076C82.7976 23.692 83.3043 23.2547 83.7523 22.764C84.2003 22.284 84.5683 21.7347 84.8563 21.116C85.1549 20.4867 85.3363 19.756 85.4003 18.924H80.9363V17.34ZM105.014 17.34V29.1H103.014V16.3C103.216 16.2787 103.435 16.2787 103.67 16.3C103.904 16.3107 104.123 16.3533 104.326 16.428C104.518 16.5027 104.678 16.6147 104.806 16.764C104.944 16.9133 105.014 17.1053 105.014 17.34ZM94.3738 17.34H100.934C100.934 17.4787 100.934 17.6173 100.934 17.756C100.944 17.884 100.95 18.012 100.95 18.14C100.95 18.268 100.95 18.396 100.95 18.524C100.95 18.6413 100.944 18.7587 100.934 18.876C100.848 19.8573 100.608 20.7427 100.214 21.532C99.8191 22.3213 99.3604 23.0147 98.8378 23.612C98.3044 24.2093 97.7498 24.7107 97.1738 25.116C96.6084 25.5213 96.1124 25.8307 95.6858 26.044C95.4938 26.1293 95.3551 26.1827 95.2698 26.204C95.1844 26.2147 95.1098 26.22 95.0458 26.22C94.8858 26.2093 94.7578 26.156 94.6618 26.06C94.5658 25.964 94.4911 25.8787 94.4378 25.804L93.8938 25.132C94.5124 24.8013 95.1044 24.4493 95.6698 24.076C96.2351 23.692 96.7418 23.2547 97.1898 22.764C97.6378 22.284 98.0058 21.7347 98.2938 21.116C98.5924 20.4867 98.7738 19.756 98.8378 18.924H94.3738V17.34Z" fill="#7058CB"/>
</g>
<defs>
<filter id="filter0_d_0_605" x="0" y="0" width="121" height="49" filterUnits="userSpaceOnUse" color-interpolation-filters="sRGB">
<feFlood flood-opacity="0" result="BackgroundImageFix"/>
<feColorMatrix in="SourceAlpha" type="matrix" values="0 0 0 0 0 0 0 0 0 0 0 0 0 0 0 0 0 0 127 0" result="hardAlpha"/>
<feOffset dy="2"/>
<feGaussianBlur stdDeviation="2"/>
<feComposite in2="hardAlpha" operator="out"/>
<feColorMatrix type="matrix" values="0 0 0 0 0 0 0 0 0 0 0 0 0 0 0 0 0 0 0.25 0"/>
<feBlend mode="normal" in2="BackgroundImageFix" result="effect1_dropShadow_0_605"/>
<feBlend mode="normal" in="SourceGraphic" in2="effect1_dropShadow_0_605" result="shape"/>
</filter>
</defs>
</svg>
