<svg width="39" height="38" viewBox="0 0 39 38" fill="none" xmlns="http://www.w3.org/2000/svg">
<path d="M19.5 2.375C23.9092 2.375 28.1379 4.12656 31.2556 7.24435C34.3734 10.3621 36.125 14.5908 36.125 19C36.125 23.4092 34.3734 27.6379 31.2556 30.7556C28.1379 33.8734 23.9092 35.625 19.5 35.625C15.0908 35.625 10.8621 33.8734 7.74435 30.7556C4.62656 27.6379 2.875 23.4092 2.875 19C2.875 14.5908 4.62656 10.3621 7.74435 7.24435C10.8621 4.12656 15.0908 2.375 19.5 2.375ZM19.5 33.25C23.2793 33.25 26.9039 31.7487 29.5763 29.0763C32.2487 26.4039 33.75 22.7793 33.75 19C33.75 15.2207 32.2487 11.5961 29.5763 8.92373C26.9039 6.25133 23.2793 4.75 19.5 4.75C15.7207 4.75 12.0961 6.25133 9.42373 8.92373C6.75133 11.5961 5.25 15.2207 5.25 19C5.25 22.7793 6.75133 26.4039 9.42373 29.0763C12.0961 31.7487 15.7207 33.25 19.5 33.25ZM21.2812 26.7188C21.2812 27.1912 21.0936 27.6442 20.7595 27.9783C20.4255 28.3123 19.9724 28.5 19.5 28.5C19.0276 28.5 18.5745 28.3123 18.2405 27.9783C17.9064 27.6442 17.7188 27.1912 17.7188 26.7188C17.7188 26.2463 17.9064 25.7933 18.2405 25.4592C18.5745 25.1252 19.0276 24.9375 19.5 24.9375C19.9724 24.9375 20.4255 25.1252 20.7595 25.4592C21.0936 25.7933 21.2812 26.2463 21.2812 26.7188ZM19.5 9.5C19.8149 9.5 20.117 9.62511 20.3397 9.84781C20.5624 10.0705 20.6875 10.3726 20.6875 10.6875V21.375C20.6875 21.6899 20.5624 21.992 20.3397 22.2147C20.117 22.4374 19.8149 22.5625 19.5 22.5625C19.1851 22.5625 18.883 22.4374 18.6603 22.2147C18.4376 21.992 18.3125 21.6899 18.3125 21.375V10.6875C18.3125 10.3726 18.4376 10.0705 18.6603 9.84781C18.883 9.62511 19.1851 9.5 19.5 9.5Z" fill="#979797" fill-opacity="0.8"/>
</svg>