<svg width="16" height="15" viewBox="0 0 16 15" fill="none" xmlns="http://www.w3.org/2000/svg">
<path d="M9.19727 6.16699C8.85889 6.16699 8.59668 6.4292 8.59668 6.75293C8.59668 7.07666 8.85889 7.33887 9.19727 7.33887C9.50635 7.33887 9.76855 7.07666 9.76855 6.75293C9.76855 6.4292 9.50635 6.16699 9.19727 6.16699ZM5.0957 6.16699C4.75732 6.16699 4.49512 6.4292 4.49512 6.75293C4.49512 7.07666 4.75732 7.33887 5.0957 7.33887C5.40479 7.33887 5.66699 7.07666 5.66699 6.75293C5.66699 6.4292 5.40479 6.16699 5.0957 6.16699Z" fill="#8A8888"/>
<path d="M13.8992 5.05371C13.1946 4.08691 12.2103 3.44092 11.1307 3.14941V3.15088C10.8802 2.87256 10.5975 2.61621 10.2811 2.38769C7.8831 0.64453 4.51689 1.17627 2.76641 3.57422C1.35576 5.52246 1.41582 8.14307 2.8543 10.0049L2.86602 11.9473C2.86602 11.9941 2.87334 12.041 2.88799 12.085C2.96562 12.3325 3.2293 12.4688 3.47539 12.3911L5.32988 11.8066C5.8206 11.981 6.32744 12.0806 6.83135 12.1084L6.82402 12.1143C8.1292 13.0649 9.84014 13.3506 11.409 12.832L13.2708 13.4385C13.3177 13.4531 13.366 13.4619 13.4158 13.4619C13.6751 13.4619 13.8846 13.2524 13.8846 12.9932V11.0303C15.1751 9.27832 15.2088 6.85693 13.8992 5.05371ZM5.53496 10.7666L5.35918 10.6934L3.90898 11.1475L3.89434 9.62402L3.77715 9.49219C2.53789 7.98047 2.45586 5.80225 3.61602 4.2041C5.02812 2.26758 7.73516 1.83984 9.66582 3.2373C11.6023 4.64502 12.0315 7.34766 10.6326 9.27246C9.45928 10.8823 7.35869 11.477 5.53496 10.7666ZM12.9324 10.5176L12.8152 10.6641L12.8299 12.1875L11.3943 11.7041L11.2186 11.7773C10.3982 12.082 9.52373 12.1069 8.71367 11.8799L8.71074 11.8784C9.79326 11.5459 10.7747 10.8721 11.4822 9.90234C12.6014 8.35986 12.783 6.42187 12.1326 4.76953L12.1414 4.77539C12.4783 5.01709 12.7874 5.31885 13.0496 5.68359C14.1131 7.14258 14.053 9.12891 12.9324 10.5176Z" fill="#8A8888"/>
<path d="M7.14648 6.16699C6.80811 6.16699 6.5459 6.4292 6.5459 6.75293C6.5459 7.07666 6.80811 7.33887 7.14648 7.33887C7.45557 7.33887 7.71777 7.07666 7.71777 6.75293C7.71777 6.4292 7.45557 6.16699 7.14648 6.16699Z" fill="#8A8888"/>
</svg>
