<svg width="16" height="15" viewBox="0 0 16 15" fill="none" xmlns="http://www.w3.org/2000/svg">
<path fill-rule="evenodd" clip-rule="evenodd" d="M11.9952 2.99936C12.0602 2.93548 12.179 2.8862 12.3321 2.88985C12.4639 2.88897 12.5913 2.93581 12.6896 3.02126C12.7709 3.10035 12.8284 3.22811 12.834 3.37108C12.8396 3.51406 12.7934 3.62235 12.7296 3.6844L8.04836 8.24732L7.25273 8.31789L7.31523 7.56045L11.9952 2.99936ZM13.3534 2.37637C13.0802 2.10989 12.7052 1.98517 12.3534 1.97727C12.0015 1.96936 11.6146 2.07887 11.3315 2.35447L6.53023 7.03419C6.4516 7.11082 6.40352 7.21217 6.39461 7.32013L6.27336 8.78453C6.26788 8.85083 6.27736 8.9175 6.30114 8.97986C6.32491 9.04222 6.3624 9.09877 6.41099 9.14554C6.45957 9.19231 6.51808 9.22818 6.5824 9.25063C6.64672 9.27308 6.71531 9.28156 6.78336 9.2755L8.30211 9.14165C8.41156 9.13183 8.51398 9.08489 8.59148 9.00902L13.3927 4.3293C13.6777 4.05187 13.7846 3.6765 13.7709 3.33458C13.7591 2.97572 13.6102 2.63403 13.3534 2.37637ZM4.43586 2.88985C4.01148 2.89097 3.6048 3.05553 3.30466 3.34758C3.00452 3.63963 2.8353 4.03544 2.83398 4.44854V11.0648C2.83514 11.478 3.00428 11.8739 3.30444 12.1661C3.6046 12.4583 4.01137 12.6229 4.43586 12.6241H11.2327C11.6571 12.6229 12.0638 12.4584 12.3639 12.1663C12.6641 11.8743 12.8333 11.4785 12.8346 11.0654V7.75696C12.8346 7.63594 12.7852 7.51988 12.6973 7.43431C12.6094 7.34874 12.4902 7.30067 12.3659 7.30067C12.2415 7.30067 12.1223 7.34874 12.0344 7.43431C11.9465 7.51988 11.8971 7.63594 11.8971 7.75696V11.0654C11.8971 11.4195 11.5971 11.7115 11.2327 11.7115H4.43586C4.07148 11.7115 3.77148 11.4195 3.77148 11.0654V4.44854C3.77148 4.09446 4.07148 3.80243 4.43586 3.80243H7.83398C7.9583 3.80243 8.07753 3.75436 8.16544 3.66879C8.25335 3.58322 8.30273 3.46716 8.30273 3.34614C8.30273 3.22512 8.25335 3.10906 8.16544 3.02349C8.07753 2.93792 7.9583 2.88985 7.83398 2.88985H4.43586Z" fill="#8A8888"/>
</svg>
