<svg width="16" height="15" viewBox="0 0 16 15" fill="none" xmlns="http://www.w3.org/2000/svg">
<path d="M6.98012 3.59665H9.18601C9.18601 3.31191 9.0698 3.03883 8.86296 2.83748C8.65612 2.63614 8.37558 2.52302 8.08307 2.52302C7.79055 2.52302 7.51001 2.63614 7.30317 2.83748C7.09633 3.03883 6.98012 3.31191 6.98012 3.59665ZM6.15292 3.59665C6.15292 3.34992 6.20284 3.1056 6.29984 2.87765C6.39684 2.6497 6.53901 2.44257 6.71825 2.26811C6.89748 2.09364 7.11025 1.95524 7.34443 1.86082C7.57861 1.7664 7.8296 1.7178 8.08307 1.7178C8.33654 1.7178 8.58752 1.7664 8.8217 1.86082C9.05588 1.95524 9.26866 2.09364 9.44789 2.26811C9.62712 2.44257 9.76929 2.6497 9.86629 2.87765C9.96329 3.1056 10.0132 3.34992 10.0132 3.59665H13.1842C13.2939 3.59665 13.3991 3.63907 13.4766 3.71457C13.5542 3.79008 13.5978 3.89248 13.5978 3.99926C13.5978 4.10604 13.5542 4.20845 13.4766 4.28395C13.3991 4.35945 13.2939 4.40187 13.1842 4.40187H12.4562L11.811 10.9032C11.7615 11.4014 11.5232 11.8637 11.1424 12.2001C10.7617 12.5364 10.266 12.7227 9.75182 12.7225H6.41432C5.90027 12.7225 5.40463 12.5362 5.02403 12.1999C4.64343 11.8635 4.40516 11.4013 4.35568 10.9032L3.7099 4.40187H2.98196C2.87227 4.40187 2.76707 4.35945 2.6895 4.28395C2.61194 4.20845 2.56836 4.10604 2.56836 3.99926C2.56836 3.89248 2.61194 3.79008 2.6895 3.71457C2.76707 3.63907 2.87227 3.59665 2.98196 3.59665H6.15292ZM7.25586 6.14652C7.25586 6.03974 7.21228 5.93733 7.13472 5.86183C7.05715 5.78632 6.95195 5.74391 6.84226 5.74391C6.73256 5.74391 6.62736 5.78632 6.5498 5.86183C6.47223 5.93733 6.42865 6.03974 6.42865 6.14652V10.1726C6.42865 10.2794 6.47223 10.3818 6.5498 10.4573C6.62736 10.5328 6.73256 10.5752 6.84226 10.5752C6.95195 10.5752 7.05715 10.5328 7.13472 10.4573C7.21228 10.3818 7.25586 10.2794 7.25586 10.1726V6.14652ZM9.32387 5.74391C9.43357 5.74391 9.53877 5.78632 9.61634 5.86183C9.6939 5.93733 9.73748 6.03974 9.73748 6.14652V10.1726C9.73748 10.2794 9.6939 10.3818 9.61634 10.4573C9.53877 10.5328 9.43357 10.5752 9.32387 10.5752C9.21418 10.5752 9.10898 10.5328 9.03141 10.4573C8.95385 10.3818 8.91027 10.2794 8.91027 10.1726V6.14652C8.91027 6.03974 8.95385 5.93733 9.03141 5.86183C9.10898 5.78632 9.21418 5.74391 9.32387 5.74391ZM5.17902 10.8259C5.20877 11.1247 5.35177 11.4021 5.58014 11.6038C5.80852 11.8056 6.1059 11.9173 6.41432 11.9173H9.75182C10.0602 11.9173 10.3576 11.8056 10.586 11.6038C10.8144 11.4021 10.9574 11.1247 10.9871 10.8259L11.6257 4.40187H4.54042L5.17902 10.8259Z" fill="#8A8888"/>
</svg>
