<svg width="22" height="20" viewBox="0 0 22 20" fill="none" xmlns="http://www.w3.org/2000/svg">
<g clip-path="url(#clip0_516_1417)">
<path d="M21.8513 18.954L15.9608 13.3673C17.3763 11.7556 18.0822 9.68835 17.9316 7.59562C17.781 5.50288 16.7854 3.54579 15.1521 2.13146C13.5188 0.717125 11.3735 -0.0455437 9.16238 0.00210549C6.95128 0.0497547 4.84467 0.904053 3.28078 2.38728C1.71689 3.87051 0.816132 5.86847 0.765892 7.96554C0.715651 10.0626 1.51979 12.0973 3.01104 13.6464C4.50228 15.1954 6.5658 16.1396 8.77234 16.2825C10.9789 16.4253 13.1585 15.7558 14.8579 14.4133L20.7484 20L21.8513 18.954ZM2.35154 8.16382C2.35154 6.84703 2.76325 5.5598 3.53461 4.46492C4.30597 3.37004 5.40233 2.51669 6.68505 2.01277C7.96777 1.50886 9.37924 1.37701 10.741 1.6339C12.1027 1.8908 13.3535 2.5249 14.3353 3.45601C15.317 4.38713 15.9856 5.57345 16.2565 6.86494C16.5273 8.15644 16.3883 9.49511 15.857 10.7117C15.3257 11.9282 14.4259 12.9681 13.2715 13.6996C12.1171 14.4312 10.7599 14.8217 9.37145 14.8217C7.51029 14.8197 5.72595 14.1176 4.40991 12.8695C3.09387 11.6213 2.35361 9.92899 2.35154 8.16382Z" fill="#8A6CFB"/>
</g>
<defs>
<clipPath id="clip0_516_1417">
<rect width="21.0876" height="20" fill="white" transform="translate(0.763672)"/>
</clipPath>
</defs>
</svg>
